<svg width="24" height="25" viewBox="0 0 24 25" fill="gray" xmlns="http://www.w3.org/2000/svg">
	<g id="visibility_off">
		<path id="Vector" d="M12 7.39294C14.76 7.39294 17 9.63294 17 12.3929C17 13.0429 16.87 13.6529 16.64 14.2229L19.56 17.1429C21.07 15.8829 22.26 14.2529 22.99 12.3929C21.26 8.00294 16.99 4.89294 11.99 4.89294C10.59 4.89294 9.25 5.14294 8.01 5.59294L10.17 7.75294C10.74 7.52294 11.35 7.39294 12 7.39294ZM2 4.66294L4.28 6.94294L4.74 7.40294C3.08 8.69294 1.78 10.4129 1 12.3929C2.73 16.7829 7 19.8929 12 19.8929C13.55 19.8929 15.03 19.5929 16.38 19.0529L16.8 19.4729L19.73 22.3929L21 21.1229L3.27 3.39294L2 4.66294ZM7.53 10.1929L9.08 11.7429C9.03 11.9529 9 12.1729 9 12.3929C9 14.0529 10.34 15.3929 12 15.3929C12.22 15.3929 12.44 15.3629 12.65 15.3129L14.2 16.8629C13.53 17.1929 12.79 17.3929 12 17.3929C9.24 17.3929 7 15.1529 7 12.3929C7 11.6029 7.2 10.8629 7.53 10.1929ZM11.84 9.41294L14.99 12.5629L15.01 12.4029C15.01 10.7429 13.67 9.40294 12.01 9.40294L11.84 9.41294Z" fill="inherit" />
	</g>
</svg>
