<svg width="24" height="25" viewBox="0 0 24 25" fill="none" xmlns="http://www.w3.org/2000/svg">
	<g id="visibility">
		<path id="Vector" d="M12 4.89294C7 4.89294 2.73 8.00294 1 12.3929C2.73 16.7829 7 19.8929 12 19.8929C17 19.8929 21.27 16.7829 23 12.3929C21.27 8.00294 17 4.89294 12 4.89294ZM12 17.3929C9.24 17.3929 7 15.1529 7 12.3929C7 9.63294 9.24 7.39294 12 7.39294C14.76 7.39294 17 9.63294 17 12.3929C17 15.1529 14.76 17.3929 12 17.3929ZM12 9.39294C10.34 9.39294 9 10.7329 9 12.3929C9 14.0529 10.34 15.3929 12 15.3929C13.66 15.3929 15 14.0529 15 12.3929C15 10.7329 13.66 9.39294 12 9.39294Z" fill="inherit" />
	</g>
</svg>
